<svg width="12" height="14" viewBox="0 0 12 14" fill="none" xmlns="http://www.w3.org/2000/svg">
<path d="M8.19332 9.85998L6.66666 11.3933V3.66665C6.66666 3.48984 6.59642 3.32027 6.47139 3.19524C6.34637 3.07022 6.1768 2.99998 5.99999 2.99998C5.82318 2.99998 5.65361 3.07022 5.52858 3.19524C5.40356 3.32027 5.33332 3.48984 5.33332 3.66665V11.3933L3.80666 9.85998C3.68112 9.73444 3.51086 9.66392 3.33332 9.66392C3.15579 9.66392 2.98553 9.73444 2.85999 9.85998C2.73445 9.98552 2.66393 10.1558 2.66393 10.3333C2.66393 10.5108 2.73445 10.6811 2.85999 10.8066L5.52666 13.4733C5.59006 13.534 5.66482 13.5816 5.74666 13.6133C5.82646 13.6486 5.91274 13.6668 5.99999 13.6668C6.08724 13.6668 6.17352 13.6486 6.25332 13.6133C6.33516 13.5816 6.40992 13.534 6.47332 13.4733L9.13999 10.8066C9.26552 10.6811 9.33605 10.5108 9.33605 10.3333C9.33605 10.1558 9.26552 9.98552 9.13999 9.85998C9.07783 9.79782 9.00404 9.74851 8.92282 9.71487C8.84161 9.68123 8.75456 9.66392 8.66666 9.66392C8.48912 9.66392 8.31886 9.73444 8.19332 9.85998ZM10.6667 0.333313H1.33332C1.15651 0.333313 0.986943 0.403551 0.861919 0.528575C0.736895 0.653599 0.666656 0.823169 0.666656 0.99998C0.666656 1.17679 0.736895 1.34636 0.861919 1.47138C0.986943 1.59641 1.15651 1.66665 1.33332 1.66665H10.6667C10.8435 1.66665 11.013 1.59641 11.1381 1.47138C11.2631 1.34636 11.3333 1.17679 11.3333 0.99998C11.3333 0.823169 11.2631 0.653599 11.1381 0.528575C11.013 0.403551 10.8435 0.333313 10.6667 0.333313Z" fill="white"/>
</svg>
